<svg xmlns="http://www.w3.org/2000/svg" width="800" height="800" fill="none" viewBox="0 0 24 24"><path stroke="#0ff" stroke-linecap="round" stroke-linejoin="round" stroke-width="2" d="M3 13.65C3 16.603 5.418 19 8.4 19h8.1c2.485 0 4.5-2.016 4.5-4.503 0-1.847-1.11-3.552-2.7-4.247C18.132 7.323 15.684 5 12.69 5 10.35 5 8.346 6.486 7.5 8.5 4.8 8.938 3 11.2 3 13.65"/><path d="M260.137 598.18c-55.248-7.663-101.48-45.821-118.84-98.087-8.671-26.11-9.768-52.134-3.28-77.824 11.331-44.868 44.906-81.771 89.318-98.172 4.76-1.759 14.396-4.48 21.412-6.048 22.025-4.922 25.465-7.696 36.213-29.21 3.88-7.768 9.71-17.814 12.955-22.324 17.96-24.963 42.927-44.682 70.208-55.449 54.669-21.576 117.417-9.343 160.098 31.212 27.905 26.516 43.114 57.282 47.627 96.35 2.417 20.917 6.245 26.575 24.321 35.947 23.983 12.435 41.543 30.431 53.383 54.707 13.72 28.132 16.284 61.238 6.956 89.816-10.98 33.641-38.043 61.512-71.442 73.575-3.758 1.358-10.319 3.34-14.579 4.403-7.72 1.929-8.209 1.935-156.72 2.12-119.072.147-150.712-.057-157.63-1.016" style="fill:#0ff;stroke-width:.923007" transform="scale(.03)"/></svg>