<svg xmlns="http://www.w3.org/2000/svg" width="800" height="800" fill="#0ff" class="icon glyph" viewBox="0 0 24 24"><path d="M21 9a4 4 0 0 1-4 4H6a3 3 0 1 1 1.08-5.79 5 5 0 0 1 9-2.09A4 4 0 0 1 17 5a4 4 0 0 1 4 4m-4.11 12.45 2-4a1 1 0 1 0-1.78-.9l-2 4a1 1 0 0 0 .44 1.34.93.93 0 0 0 .45.11 1 1 0 0 0 .89-.55m-8 0 2-4a1 1 0 1 0-1.78-.9l-2 4a1 1 0 0 0 .44 1.34A.93.93 0 0 0 8 22a1 1 0 0 0 .89-.55m5-2 1-2a1 1 0 1 0-1.78-.9l-1 2a1 1 0 0 0 .44 1.34.93.93 0 0 0 .45.11 1 1 0 0 0 .89-.55m-8 0 1-2a1 1 0 0 0-1.78-.9l-1 2a1 1 0 0 0 .44 1.34A.93.93 0 0 0 5 20a1 1 0 0 0 .89-.55"/></svg>