<svg xmlns="http://www.w3.org/2000/svg" width="800" height="800" fill="#0ff" class="icon glyph" viewBox="0 0 24 24"><path d="M21 9a4 4 0 0 1-4 4H6a3 3 0 1 1 1.08-5.79 5 5 0 0 1 9-2.09A4 4 0 0 1 17 5a4 4 0 0 1 4 4Zm-4.11 12.45 2-4a1 1 0 1 0-1.78-.9l-2 4a1 1 0 0 0 .44 1.34.93.93 0 0 0 .45.11 1 1 0 0 0 .89-.55Zm-8 0 2-4a1 1 0 1 0-1.78-.9l-2 4a1 1 0 0 0 .44 1.34A.93.93 0 0 0 8 22a1 1 0 0 0 .89-.55Zm5-2 1-2a1 1 0 1 0-1.78-.9l-1 2a1 1 0 0 0 .44 1.34.93.93 0 0 0 .45.11 1 1 0 0 0 .89-.55Zm-8 0 1-2a1 1 0 0 0-1.78-.9l-1 2a1 1 0 0 0 .44 1.34A.93.93 0 0 0 5 20a1 1 0 0 0 .89-.55Z" style="fill:none;fill-opacity:1;stroke:#0ff;stroke-opacity:1"/><path d="M1.519 1.094v.152h20.354v.03h.517v-.182zm20.87.182v13.063h-.455v.486h.517V1.275zm-.455 13.55h-.06v.12H1.214V1.337H.577v13.672h21.357zM1.215 1.335h.304v-.09h-.304zm.304 0V14.34h.243V1.337zm.243 0h20.111v-.06H1.762zm20.111 0V14.34h.061V1.337zm0 13.003H1.762v.486h20.111z" style="fill:none;stroke-width:.99999;stroke-dasharray:none"/><path d="M3.129 2.552h14.643v14.157H3.129z" style="fill:none;stroke-width:.99999;stroke-dasharray:none"/></svg>