<svg xmlns="http://www.w3.org/2000/svg" xml:space="preserve" id="_x32_" version="1.1" viewBox="0 0 512 512"><style>.st0{fill:#0ff}</style><path d="M115.958 269.922c16.999-10.12 36.842-15.916 58.04-15.916 2.556 0 5.127.078 7.682.234a138.24 138.24 0 0 1 39.203-63.12c-3.49-39.437-36.562-70.32-76.879-70.32-42.647 0-77.207 34.56-77.207 77.199.001 32.767 20.397 60.72 49.161 71.923M135.652 54.002h16.696v45.911h-16.696zM102.184 108.88 79.232 69.116l-14.46 8.351 22.952 39.765zM15.114 133.233l39.764 22.952 8.352-14.459-39.764-22.952zM45.919 189.654H0v16.696l45.919-.008zM15.114 262.77l8.352 14.46 39.764-22.96-8.352-14.459zM264.538 118.766l8.344 14.46-39.765 22.946-8.344-14.458zM223.228 77.467l-14.452-8.351-22.959 39.764 14.452 8.352z" class="st0"/><path d="M431.997 298c-.031 0-.062.008-.101.008.054-1.332.101-2.665.101-4.004C431.997 229.932 380.064 178 316 178c-60.012 0-109.382 45.575-115.388 104.006a89.9 89.9 0 0 0-26.614-4.005C124.294 278.001 84 318.295 84 368s40.294 89.998 89.998 89.998h257.999c44.182 0 80.003-35.814 80.003-79.995C512 333.814 476.178 298 431.997 298" class="st0"/></svg>